<svg width="102" height="69" viewBox="0 0 102 69" fill="none" xmlns="http://www.w3.org/2000/svg">
<line x1="24" y1="67" x2="24" y2="2" stroke="#FF0000" stroke-width="4" stroke-linecap="round" stroke-linejoin="round"/>
<line x1="13" y1="56" x2="13" y2="12" stroke="#FF0000" stroke-width="4" stroke-linecap="round" stroke-linejoin="round"/>
<line x1="2" y1="46" x2="2" y2="22" stroke="#FF0000" stroke-width="4" stroke-linecap="round" stroke-linejoin="round"/>
<line x1="2" y1="-2" x2="35" y2="-2" transform="matrix(-1 0 0 1 70 37)" stroke="#FF0000" stroke-width="4" stroke-linecap="round" stroke-linejoin="round"/>
<line x1="2" y1="-2" x2="67" y2="-2" transform="matrix(3.10414e-08 -1 -1 -6.15528e-08 76 69)" stroke="#FF0000" stroke-width="4" stroke-linecap="round" stroke-linejoin="round"/>
<line x1="2" y1="-2" x2="46" y2="-2" transform="matrix(3.0167e-08 -1 -1 -6.33369e-08 87 58)" stroke="#FF0000" stroke-width="4" stroke-linecap="round" stroke-linejoin="round"/>
<line x1="2" y1="-2" x2="26" y2="-2" transform="matrix(3.0167e-08 -1 -1 -6.33369e-08 98 48)" stroke="#FF0000" stroke-width="4" stroke-linecap="round" stroke-linejoin="round"/>
</svg>
