<svg width="149" height="85" viewBox="0 0 149 85" fill="none" xmlns="http://www.w3.org/2000/svg">
<path d="M22.2756 26.8417L7.85084 51.5843L24.7272 59.7775L11.6536 80.7802L22.2756 80.7802" stroke="white" stroke-width="4" stroke-linecap="round" stroke-linejoin="round"/>
<path d="M22.7944 17.7527L28.334 6.62549L37.8091 20.5106L22.7944 17.7527Z" stroke="white" stroke-width="4" stroke-linecap="round" stroke-linejoin="round"/>
<path d="M27.1787 32.092L31.6727 44.98L45.1549 46.8893" stroke="white" stroke-width="4" stroke-linecap="round" stroke-linejoin="round"/>
<path d="M67.216 26.8417L52.7913 51.5843L69.6676 59.7775L56.594 80.7802L67.216 80.7802" stroke="white" stroke-width="4" stroke-linecap="round" stroke-linejoin="round"/>
<path d="M67.7348 17.7527L73.2744 6.62549L82.7495 20.5106L67.7348 17.7527Z" stroke="white" stroke-width="4" stroke-linecap="round" stroke-linejoin="round"/>
<path d="M72.1191 32.092L76.6132 44.98L90.0953 46.8893" stroke="white" stroke-width="4" stroke-linecap="round" stroke-linejoin="round"/>
<path d="M125.663 24.0734L140.775 49.9953L123.094 58.579L136.791 80.5828L125.663 80.5828" stroke="#FF0000" stroke-width="4" stroke-linecap="round" stroke-linejoin="round"/>
<path d="M125.119 14.5512L119.315 2.89355L109.389 17.4405L125.119 14.5512Z" stroke="#FF0000" stroke-width="4" stroke-linecap="round" stroke-linejoin="round"/>
<path d="M120.526 29.574L115.818 43.0762L101.693 45.0766" stroke="#FF0000" stroke-width="4" stroke-linecap="round" stroke-linejoin="round"/>
</svg>
