<svg width="133" height="115" viewBox="0 0 133 115" fill="none" xmlns="http://www.w3.org/2000/svg">
<path d="M74.9297 9.50977L98.469 38.1575M98.469 38.1575L128.878 29.4177M98.469 38.1575L94.7255 68.1229M94.7255 68.1229L63.0125 104.902M94.7255 68.1229L116.668 78.2138L119.726 102.675" stroke="white" stroke-width="4" stroke-linecap="round" stroke-linejoin="round"/>
<path d="M102.113 26.7751L96.3179 11.7419L117.556 12.792L102.113 26.7751Z" stroke="white" stroke-width="4" stroke-linecap="round" stroke-linejoin="round"/>
<path d="M43.4331 26.0864L26.7043 47.3406M26.7043 47.3406L4.3925 41.4324M26.7043 47.3406L29.8938 69.1377M29.8938 69.1377L53.5864 95.4752M29.8938 69.1377L14.0452 76.8335L12.1898 94.7203" stroke="#FF0000" stroke-width="4" stroke-linecap="round" stroke-linejoin="round"/>
<path d="M23.8722 39.0948L27.8682 28.042L12.3944 29.1333L23.8722 39.0948Z" stroke="#FF0000" stroke-width="4" stroke-linecap="round" stroke-linejoin="round"/>
</svg>
