<svg width="24" height="24" viewBox="0 0 24 24" fill="none" xmlns="http://www.w3.org/2000/svg">
<path fill-rule="evenodd" clip-rule="evenodd" d="M0 12C0 5.38257 5.38257 0 12 0C18.6174 0 24 5.38257 24 12C24 15.0079 22.8602 17.8892 20.8338 20.1056C18.5224 22.6068 15.3879 24 12 24C8.61214 24 5.4776 22.6068 3.16624 20.1056C1.1082 17.8892 0 15.0079 0 12ZM20.1373 17.9842C19.9157 18.3008 19.694 18.5857 19.4407 18.8391C17.4776 20.9288 14.8497 22.1003 12.0001 22.1003C9.15051 22.1003 6.52256 20.9288 4.55949 18.8391C4.30616 18.5541 4.08454 18.2691 3.86291 17.9842C5.92095 15.7045 8.42224 14.3747 11.1452 14.1531C8.83386 13.7414 7.06078 11.6834 7.06078 9.24538C7.06078 6.49076 9.27711 4.27443 12.0001 4.27443C14.7231 4.27443 16.9394 6.49076 16.9394 9.24538C16.9394 11.715 15.1663 13.7414 12.855 14.1531C15.5463 14.4063 18.0792 15.7362 20.1373 17.9842Z" fill="#FF0000"/>
</svg>
